<?xml version="1.0" standalone="no"?>
<!DOCTYPE svg PUBLIC "-//W3C//DTD SVG 20010904//EN"
 "http://www.w3.org/TR/2001/REC-SVG-20010904/DTD/svg10.dtd">
<svg version="1.0" xmlns="http://www.w3.org/2000/svg"
 width="840.000000pt" height="880.000000pt" viewBox="0 0 840.000000 880.000000"
 preserveAspectRatio="xMidYMid meet">

<g transform="translate(0.000000,880.000000) scale(0.100000,-0.100000)"
fill="#000000" stroke="none">
<path d="M3785 8393 c-93 -5 -105 -10 -122 -51 -26 -61 -69 -218 -164 -597
-50 -198 -94 -376 -99 -395 -9 -35 -13 -37 -111 -68 -137 -44 -256 -92 -433
-174 -82 -38 -154 -67 -160 -64 -6 2 -177 103 -380 225 -203 121 -410 242
-461 268 l-93 47 -48 -39 c-64 -51 -609 -596 -659 -659 l-39 -48 47 -93 c26
-51 149 -262 273 -470 l226 -377 -42 -92 c-88 -189 -149 -335 -190 -456 -24
-69 -48 -130 -54 -136 -6 -6 -171 -51 -366 -99 -551 -136 -673 -173 -692 -209
-7 -13 -13 -139 -16 -356 -5 -369 4 -640 22 -665 18 -25 161 -68 589 -175 221
-56 418 -105 437 -110 34 -9 37 -13 64 -97 43 -134 107 -293 180 -450 36 -78
66 -144 66 -148 0 -4 -89 -156 -198 -338 -231 -386 -280 -471 -318 -549 l-28
-57 39 -48 c51 -63 596 -608 658 -658 l48 -38 47 22 c81 39 237 129 571 329
l323 194 82 -37 c190 -87 330 -145 461 -190 77 -27 141 -50 143 -51 2 -1 54
-204 117 -451 119 -470 154 -591 180 -609 25 -18 297 -27 665 -22 217 3 343 9
356 16 35 19 61 103 195 637 50 198 95 376 100 395 8 34 12 37 96 64 127 41
314 117 459 186 70 33 131 60 136 60 5 0 150 -84 321 -187 335 -201 604 -353
623 -353 28 0 597 556 708 693 l40 48 -28 57 c-39 79 -119 217 -332 574 -101
169 -184 311 -184 316 0 5 27 66 60 136 69 145 145 332 186 459 27 84 30 88
64 96 19 5 197 50 395 100 534 134 618 160 637 195 14 26 24 630 13 850 -6
133 -10 161 -25 176 -26 26 -136 58 -623 180 -236 60 -430 110 -432 112 -1 2
-17 48 -35 103 -43 129 -102 276 -180 446 l-62 137 199 333 c231 386 281 472
319 551 l28 57 -39 48 c-50 62 -596 608 -658 658 l-48 39 -57 -28 c-75 -37
-204 -111 -574 -332 -168 -101 -309 -184 -313 -184 -4 0 -70 30 -148 66 -157
73 -316 137 -450 180 -84 27 -88 30 -97 64 -5 19 -54 216 -110 437 -100 397
-148 565 -170 587 -6 6 -52 14 -103 18 -91 6 -716 7 -832 1z m705 -193 l97 0
78 -312 c120 -484 184 -711 203 -726 9 -7 71 -30 137 -51 157 -51 242 -85 465
-188 101 -47 200 -88 220 -90 31 -4 62 12 265 132 519 309 638 378 654 382 25
6 545 -512 538 -537 -4 -17 -73 -135 -382 -655 -120 -203 -136 -234 -132 -265
2 -20 43 -119 90 -220 101 -220 131 -294 186 -461 23 -69 47 -132 54 -141 6
-9 44 -25 82 -36 75 -22 499 -132 781 -201 l171 -43 6 -261 c4 -144 7 -317 7
-384 l0 -122 -37 -11 c-21 -5 -191 -48 -378 -95 -532 -134 -597 -153 -621
-179 -11 -13 -35 -65 -53 -117 -60 -176 -104 -284 -194 -479 -49 -107 -91
-210 -94 -230 -5 -39 -21 -9 321 -584 98 -164 182 -309 188 -322 10 -21 0 -34
-118 -159 -71 -75 -191 -195 -268 -268 l-139 -131 -51 28 c-28 16 -221 130
-429 253 -209 124 -392 230 -408 237 -37 13 -75 1 -253 -84 -152 -73 -297
-132 -465 -191 -69 -23 -135 -52 -147 -63 -26 -24 -42 -82 -184 -641 -50 -198
-93 -369 -96 -379 -6 -18 -19 -19 -388 -11 -209 4 -382 8 -383 8 -1 1 -42 162
-91 358 -117 461 -171 657 -189 674 -7 8 -64 30 -125 50 -156 51 -266 95 -478
192 -101 47 -200 88 -220 90 -31 4 -80 -22 -475 -256 -242 -144 -445 -261
-452 -261 -7 0 -130 118 -273 261 -189 189 -260 267 -257 280 4 16 73 134 382
654 120 203 136 234 132 265 -2 20 -43 119 -90 220 -95 206 -126 282 -183 449
-21 63 -48 128 -59 145 -26 38 -26 38 -590 180 l-440 111 -3 386 -2 386 346
87 c397 100 650 171 680 191 13 8 31 48 53 117 47 144 99 273 198 488 47 101
88 200 90 220 4 31 -12 62 -132 265 -309 521 -378 638 -382 655 -7 25 512 544
537 537 17 -4 99 -52 654 -381 166 -99 238 -136 261 -136 20 0 86 26 166 66
169 83 323 147 514 214 83 28 153 55 158 59 10 10 28 76 151 566 58 231 110
430 116 442 12 29 47 32 344 27 132 -2 283 -4 336 -4z"/>
<path d="M4006 6200 c-325 -41 -636 -164 -881 -348 -607 -457 -868 -1223 -664
-1946 140 -495 485 -905 953 -1131 215 -104 412 -157 648 -176 624 -49 1243
239 1611 752 84 117 203 353 245 484 249 778 -39 1610 -717 2066 -215 145
-443 238 -701 285 -100 18 -395 27 -494 14z m304 -190 c308 -27 579 -123 810
-287 122 -87 316 -282 402 -403 127 -178 237 -439 269 -635 20 -119 17 -455
-5 -580 -35 -203 -137 -449 -258 -620 -79 -112 -274 -310 -393 -398 -180 -133
-406 -231 -620 -267 -377 -64 -743 -15 -1046 141 -417 214 -749 645 -848 1100
-48 224 -49 433 -1 664 126 612 620 1114 1233 1252 91 20 188 33 322 42 11 0
72 -4 135 -9z"/>
</g>
</svg>
